<svg height="492pt" viewBox="0 -15 492.00009 492" width="492pt" xmlns="http://www.w3.org/2000/svg"><path d="m484 0h-226.191406c-2.101563.0078125-4.113282.859375-5.582032 2.363281-1.46875 1.503907-2.269531 3.535157-2.226562 5.636719v202.140625c-.039062 2.980469 1.605469 5.734375 4.25 7.113281 2.632812 1.335938 5.78125 1.148438 8.242188-.480468l51.480468-36.773438h170.027344c4.46875-.125 8.019531-3.792969 8-8.265625v-163.734375c0-4.417969-3.582031-8-8-8zm-8 164h-164.601562c-1.625-.046875-3.226563.433594-4.5625 1.363281l-40.835938 29.199219v-178.5625h210zm0 0"/><path d="m323.933594 132.042969c2.636718 0 4.675781-.824219 5.277344-3.101563l4.558593-15.941406h27.480469l4.558594 15.941406c.601562 2.28125 2.640625 3.109375 5.28125 3.109375 4.199218 0 9.839844-2.765625 9.839844-6.484375-.035157-.410156-.113282-.8125-.242188-1.199218l-23.15625-75.480469c-1.082031-3.601563-5.519531-5.28125-10.082031-5.28125-4.4375 0-8.878907 1.679687-9.960938 5.277343l-23.15625 75.476563c-.117187.394531-.195312.796875-.238281 1.203125 0 3.835938 5.636719 6.480469 9.839844 6.480469zm23.515625-67.882813 10.441406 36.839844h-20.878906zm0 0"/><path d="m409 132.042969c3.839844 0 8-1.683594 8-4.921875v-78c0-3.359375-4.160156-4.800782-8-4.800782-3.960938 0-8 1.441407-8 4.800782v78c0 3.238281 4.039062 4.921875 8 4.921875zm0 0"/><path d="m261.125 462c2.109375-.003906 4.128906-.855469 5.609375-2.355469 1.476563-1.503906 2.292969-3.535156 2.265625-5.644531v-33.890625c.023438-35.90625-29.042969-65.042969-64.945312-65.109375h-15.054688v-15h47.261719c2.0625.058594 4.058593-.730469 5.523437-2.1875 1.460938-1.457031 2.261719-3.449219 2.214844-5.511719v-46.671875c13.445312-3.414062 22.859375-15.519531 22.859375-29.390625 0-13.871093-9.414063-25.976562-22.859375-29.390625v-37.457031c0-4.417969-3.320312-8.390625-7.738281-8.390625h-94.261719v-16c0-4.417969-3.582031-8-8-8s-8 3.582031-8 8v16h-93.132812c-4.417969 0-7.867188 3.972656-7.867188 8.390625v37.457031c-13.445312 3.414063-22.863281 15.515625-22.863281 29.390625s9.417969 25.976563 22.863281 29.390625v46.671875c-.019531 2.078125.808594 4.070313 2.292969 5.523438s3.496093 2.238281 5.574219 2.175781h47.132812v15h-14.925781c-35.929688.058594-65.0351565 29.179688-65.074219 65.109375v33.890625c0 4.417969 3.582031 8 8 8zm-70.125-16h-113v-29h113zm59.859375-189.761719c-.050781 4.972657-2.636719 9.574219-6.859375 12.203125v-24.402344c4.21875 2.628907 6.808594 7.226563 6.859375 12.199219zm-232.722656 0c.054687-4.972656 2.640625-9.574219 6.863281-12.203125v24.402344c-4.222656-2.628906-6.808594-7.226562-6.863281-12.199219zm22.863281-59.238281h187v127h-187zm55 143h77v15h-77zm-80 80.109375c.027344-27.097656 21.976562-49.0625 49.074219-49.109375h138.980469c27.070312.058594 48.976562 22.035156 48.945312 49.109375v25.890625h-46v-37.117188c-.128906-4.441406-3.804688-7.957031-8.246094-7.882812h-128.378906c-4.417969 0-8.375 3.464844-8.375 7.882812v37.117188h-46zm0 0"/><path d="m193 279c0-4.417969-3.582031-8-8-8h-101c-4.417969 0-8 3.582031-8 8v27c0 4.417969 3.582031 8 8 8h101c4.417969 0 8-3.582031 8-8zm-16 19h-85v-11h85zm0 0"/><path d="m116 222c0-4.417969-3.582031-8-8-8h-29c-4.417969 0-8 3.582031-8 8v29c0 4.417969 3.582031 8 8 8h29c4.417969 0 8-3.582031 8-8zm-29 8h13v12h-13zm0 0"/><path d="m198 222c0-4.417969-3.582031-8-8-8h-29c-4.417969 0-8 3.582031-8 8v29c0 4.417969 3.582031 8 8 8h29c4.417969 0 8-3.582031 8-8zm-29 8h13v12h-13zm0 0"/></svg>